<svg width="32" height="32" viewBox="0 0 32 32" fill="none" xmlns="http://www.w3.org/2000/svg">
  <g clip-path="url(#clip0_60_12314)">
    <path d="M31.8451 1.11409C31.8921 1.05985 31.9266 0.996059 31.9461 0.927182C31.9657 0.858305 31.9698 0.786012 31.9583 0.715372C31.9652 0.640931 31.9559 0.565887 31.931 0.495328C31.9062 0.424769 31.8663 0.360346 31.8142 0.306426C31.7123 0.207757 31.5757 0.152533 31.4334 0.152533C31.2911 0.152533 31.1544 0.207757 31.0525 0.306426L22.6949 8.68981C17.0956 13.5358 16.1075 14.5377 9.50993 8.68981L1.08021 0.306426L0.925818 0.153071C0.82287 0.073012 0.69398 0.0331522 0.563473 0.0410149C0.432966 0.0488775 0.30987 0.103919 0.217419 0.19575C0.124967 0.287582 0.0695538 0.409852 0.061638 0.539483C0.0537222 0.669114 0.0938513 0.79714 0.174451 0.899397L8.563 9.31345C13.4314 14.8956 14.4298 15.8873 8.563 22.4713L0.153866 30.8751C0.103814 30.9304 0.0653055 30.9951 0.0405708 31.0653C0.0158361 31.1354 0.00536651 31.2098 0.00976814 31.2841C0.0045392 31.3904 0.0315908 31.4959 0.0874177 31.5868C0.143245 31.6777 0.225274 31.7499 0.322876 31.794C0.420478 31.838 0.529154 31.852 0.634824 31.834C0.740493 31.816 0.838284 31.7669 0.915526 31.693L9.31437 23.3198C14.9136 18.4738 15.9017 17.4719 22.4993 23.3198L30.929 31.693L31.0834 31.8464C31.1818 31.9438 31.3151 31.9984 31.454 31.9984C31.5929 31.9984 31.7261 31.9438 31.8245 31.8464C31.8762 31.7976 31.9174 31.739 31.9455 31.674C31.9736 31.6089 31.9882 31.5389 31.9882 31.4681C31.9882 31.3973 31.9736 31.3273 31.9455 31.2622C31.9174 31.1972 31.8762 31.1385 31.8245 31.0898L23.4257 22.686C18.5572 17.1039 17.5588 16.102 23.4257 9.52815L31.8451 1.11409Z" fill="#3B62BA" />
  </g>
  <defs>
    <clipPath id="clip0_60_12314">
      <rect width="32" height="32" fill="white" />
    </clipPath>
  </defs>
</svg>