<svg width="131" height="43" viewBox="0 0 131 43" fill="none" xmlns="http://www.w3.org/2000/svg">
<path fill-rule="evenodd" clip-rule="evenodd" d="M97.3074 0.0238299C97.7743 0.0238299 98.1712 0.190635 98.4981 0.53616C98.8366 0.869771 99 1.27487 99 1.75146V16C100.902 16.8009 102.438 17.8241 103.946 18.8286L104.014 18.874C105.84 20.0972 107.606 21.2787 110 22.0233V14.9479C110 14.2271 110.107 13.5182 110.331 12.821C110.379 12.691 110.379 12.6674 110.355 12.7265C111.112 10.4932 112.615 9.02801 114.864 8.33085C114.876 8.33085 114.899 8.31904 114.923 8.30722C115.101 8.25996 115.29 8.21269 115.491 8.16543H115.55C115.586 8.1418 115.609 8.1418 115.621 8.1418C115.787 8.10635 115.964 8.0709 116.154 8.04727L116.284 8.02363C116.533 8 116.746 8 116.947 8H117.077C117.247 8 117.436 8.00955 117.645 8.02006L117.716 8.02363L117.858 8.04727C118.047 8.0709 118.225 8.10635 118.391 8.1418C118.402 8.1418 118.45 8.16543 118.45 8.16543H118.521C118.584 8.18119 118.648 8.19695 118.713 8.21271C118.842 8.24422 118.97 8.27572 119.089 8.30722C119.101 8.33085 119.112 8.33085 119.124 8.33085C121.373 9.02801 122.876 10.4932 123.633 12.7265C123.657 12.7383 123.657 12.7856 123.657 12.7856V12.821C123.882 13.5182 124 14.2271 124 14.9479V20.479C125.014 19.8995 125.941 19.2539 126.887 18.5956L126.977 18.5326L127.119 18.4336C128.333 17.5888 129.555 16.7385 130.989 16.0175V18.5444C130.084 19.0715 129.24 19.6603 128.391 20.253C128.334 20.2932 128.276 20.3333 128.218 20.3735C126.908 21.2998 125.575 22.2261 124 23V33.2748C124 33.7475 123.822 34.1729 123.491 34.5037C123.16 34.8346 122.757 35 122.284 35C121.811 35 121.408 34.8346 121.077 34.5037C120.746 34.161 120.58 33.7475 120.58 33.2748V24.5216C119.175 24.8205 117.588 25 115.738 25C114.921 25 114.154 24.9655 113.432 24.9011V33.2748C113.432 33.7475 113.266 34.161 112.935 34.5037C112.592 34.8346 112.201 35 111.728 35C111.254 35 110.84 34.8346 110.497 34.5037C110.166 34.161 110 33.7475 110 33.2748V24.306C106.948 23.4888 104.823 22.0655 102.743 20.6717L102.449 20.4772C101.339 19.7414 100.244 19.0159 99 18.416V41.2724C99 41.749 98.8483 42.1421 98.5097 42.4877C98.1712 42.8332 97.7626 43 97.2957 43C96.7704 43 96.3268 42.7736 95.9766 42.3328V42.3089C95.93 42.2613 95.8833 42.1898 95.8482 42.1064C95.8424 42.1064 95.8366 42.1004 95.8307 42.0945C95.8249 42.0885 95.8191 42.0826 95.8132 42.0826C95.8132 42.0468 95.7899 42.0468 95.7899 42.0468L88.3883 16.3965C88.0383 16.4299 87.7004 16.4717 87.3735 16.5212V41.2485C87.3735 41.7251 87.2101 42.1302 86.8833 42.4638C86.5564 42.8094 86.1595 42.9762 85.6926 42.9762C85.2257 42.9762 84.8288 42.8094 84.5019 42.4638C84.1634 42.1302 84 41.7251 84 41.2485V17.417C82.0112 18.1992 80.4512 19.3052 78.8445 20.4458C75.6882 22.6867 72.4267 25 65.9388 25C65.0102 25 64.1477 24.9526 63.3422 24.8648V31.5293H71.3289C71.7899 31.5293 72.1817 31.6968 72.5044 32.0319C72.8387 32.379 73 32.7859 73 33.2527C73 33.7194 72.8387 34.1503 72.5044 34.4973C72.1817 34.8324 71.7899 35 71.3289 35H61.6826C61.2216 35 60.8183 34.8324 60.484 34.4973C60.1613 34.1503 60 33.7314 60 33.2527V24.1998C57.0971 23.3302 55.0437 21.8733 53.033 20.4458C51.7471 19.5301 50.4846 18.6385 49 17.9156V35.1373C49 37.3088 48.2602 39.1582 46.7921 40.6853C45.3354 42.2245 43.5713 43 41.5 43C39.4287 43 37.6646 42.2245 36.2079 40.6853C34.7398 39.1582 34 37.3088 34 35.1373V18.0019C32.5201 18.7333 31.2537 19.6359 29.9572 20.5607C27.3406 22.424 24.1682 24.335 19.6833 24.9746L17.1928 33.5952C17.0551 34.2796 16.6534 34.728 15.9991 34.9286C15.54 35.0584 15.0924 35.0112 14.6792 34.787C14.2545 34.551 13.979 34.197 13.8413 33.725L11.1091 24.2746C8.13817 23.4581 6.04256 22.0746 3.99931 20.7213L3.98995 20.7151C2.70733 19.8661 1.45932 19.04 0 18.372V16C2.02638 16.7954 3.63889 17.8563 5.22339 18.8988L5.22341 18.8988L5.28522 18.9394H5.27342C6.8698 19.9971 8.42039 21.0234 10.3815 21.7581L7.06944 10.3019C6.94319 9.82991 6.9891 9.38151 7.20717 8.94491C7.43673 8.50831 7.78106 8.22511 8.24017 8.08351C8.69928 7.94191 9.13544 7.97731 9.56011 8.21331C9.98479 8.46111 10.2603 8.81511 10.398 9.27531L14.2818 22.6896C15.0227 22.7785 15.8188 22.8312 16.6808 22.8417L20.5902 9.28711C20.728 8.81511 21.0149 8.46111 21.4281 8.22511C21.8528 7.98911 22.3004 7.94191 22.7595 8.08351C23.2072 8.22511 23.5515 8.52011 23.7925 8.94491C24.0221 9.38151 24.0565 9.84171 23.9188 10.3137L20.4235 22.4125C23.6956 21.6982 26.4642 20.2111 28.6667 18.6354C30.2818 17.483 31.9242 16.3117 34 15.4349V7.83879C34 5.67924 34.7398 3.82991 36.2079 2.29079C37.6646 0.763596 39.4287 0 41.5 0C43.5713 0 45.3354 0.763596 46.7921 2.29079C48.2602 3.82991 49 5.67924 49 7.83879V15.3976C51.0691 16.265 52.7057 17.4217 54.3072 18.5542C56.0559 19.7954 57.7491 20.9958 60 21.7824V9.73537C60 9.25665 60.1613 8.84973 60.484 8.51463C60.8183 8.16755 61.2216 8 61.6826 8C62.1436 8 62.5239 8.16755 62.8582 8.51463C63.1809 8.84973 63.3422 9.25665 63.3422 9.73537V22.548C64.1391 22.6458 65.0002 22.6988 65.9388 22.6988C71.7253 22.6988 74.5659 20.6867 77.5703 18.5542C79.4534 17.2172 81.3782 15.8544 84 14.9725V1.72763C84 1.25104 84.1517 0.857856 84.4903 0.512331C84.8288 0.166806 85.2374 0 85.7043 0C86.2296 0 86.6731 0.226378 87.0233 0.66722V0.69105C87.07 0.738709 87.1167 0.810197 87.1517 0.893599C87.1576 0.893599 87.1634 0.899557 87.1693 0.905514C87.1751 0.911472 87.1809 0.917429 87.1868 0.917429C87.1868 0.953173 87.2101 0.953174 87.2101 0.953174L91.0046 14.0064C92.504 14.0409 94.3968 14.2119 95.6265 14.4284V1.75146C95.6265 1.27487 95.7899 0.869771 96.1167 0.53616C96.4436 0.190635 96.8405 0.0238299 97.3074 0.0238299ZM130.989 16.0175C130.992 16.0156 130.996 16.0136 131 16.0117L130.989 16V16.0175ZM15.5056 26.9164L14.9299 24.9279C15.2953 24.9569 15.672 24.9784 16.0607 24.9918L15.5056 26.9164ZM113.432 22.7041C114.144 22.775 114.906 22.813 115.727 22.813C117.631 22.813 119.204 22.6144 120.58 22.2687V14.9479C120.58 14.4871 120.485 14.0381 120.308 13.6127L120.284 13.5772C120.154 13.27 119.988 12.9982 119.775 12.7383C119.787 12.7501 119.775 12.7265 119.74 12.6792C119.633 12.5611 119.503 12.4311 119.373 12.3129C119.325 12.2775 119.29 12.242 119.266 12.2184C119.231 12.1929 119.197 12.1674 119.165 12.1428L119.165 12.1427L119.164 12.1426C119.122 12.1103 119.082 12.0797 119.041 12.053C118.97 12.0057 118.888 11.9585 118.805 11.9113L118.805 11.9112L118.544 11.7812C118.45 11.7457 118.367 11.7103 118.284 11.6748C118.189 11.6394 118.118 11.6158 118.118 11.6158C117.976 11.5685 117.834 11.533 117.692 11.5094C117.678 11.5094 117.654 11.5049 117.621 11.4987L117.621 11.4986C117.601 11.4948 117.577 11.4903 117.55 11.4858C117.373 11.4621 117.219 11.4503 117.089 11.4503H116.923C116.781 11.4503 116.627 11.4621 116.462 11.4858C116.391 11.5094 116.343 11.5094 116.32 11.5094C116.166 11.533 116.024 11.5685 115.893 11.6158L115.716 11.6748L115.716 11.6749C115.633 11.7103 115.55 11.7458 115.479 11.7812C115.361 11.8284 115.278 11.8757 115.219 11.9112C115.124 11.9584 115.041 12.0057 114.982 12.053C114.899 12.1002 114.828 12.1593 114.757 12.2184C114.746 12.2184 114.71 12.2537 114.651 12.3126L114.651 12.3126L114.651 12.3128L114.651 12.3129C114.521 12.4311 114.391 12.5611 114.284 12.6792C114.26 12.691 114.26 12.7147 114.26 12.7147C114.249 12.7383 114.237 12.7383 114.225 12.7383C114.012 12.9864 113.846 13.27 113.728 13.5772C113.728 13.5654 113.716 13.5772 113.704 13.6127C113.527 14.0381 113.432 14.4871 113.432 14.9479V22.7041ZM37.3118 35.1373V16.8127C38.5871 16.5147 40.0368 16.3422 41.7377 16.3422C43.2352 16.3422 44.5338 16.4761 45.6882 16.7062V35.1373C45.6882 36.3424 45.2785 37.3804 44.459 38.2395C43.6396 39.0985 42.6609 39.528 41.5 39.528C40.3391 39.528 39.349 39.0985 38.541 38.2395C37.7215 37.3804 37.3118 36.3424 37.3118 35.1373ZM41.7259 14C43.1981 14 44.5096 14.1144 45.6882 14.3241V7.83879C45.6882 6.63374 45.2785 5.59573 44.459 4.73668C43.6396 3.88957 42.6495 3.46004 41.5 3.46004C40.3505 3.46004 39.349 3.88957 38.541 4.73668C37.7215 5.59573 37.3118 6.63374 37.3118 7.83879V14.4148C38.608 14.1515 40.0622 14 41.7259 14ZM95.6265 16.8859C94.4918 16.5679 93.0275 16.3946 91.6802 16.3304L95.6265 29.9058V16.8859ZM87.7404 14.1512L87.3735 12.8797V14.1971C87.4945 14.1808 87.6168 14.1655 87.7404 14.1512Z" fill="#3B62BA"/>
</svg>
